<svg width="985" height="190" xmlns="http://www.w3.org/2000/svg" xmlns:xlink="http://www.w3.org/1999/xlink" overflow="hidden"><defs><clipPath id="clip0"><rect x="152" y="155" width="985" height="190"/></clipPath><clipPath id="clip1"><rect x="180" y="173" width="142" height="143"/></clipPath><clipPath id="clip2"><rect x="180" y="173" width="142" height="143"/></clipPath><clipPath id="clip3"><rect x="132" y="125" width="238" height="239"/></clipPath><linearGradient x1="130.684" y1="120.426" x2="160.23" y2="155.653" gradientUnits="userSpaceOnUse" spreadMethod="pad" id="fill4"><stop offset="0" stop-color="#EFF7FC"/><stop offset="1" stop-color="#FFFFFF"/></linearGradient></defs><g clip-path="url(#clip0)" transform="translate(-152 -155)"><path d="M152 187.334C152 170.029 166.029 156 183.334 156L1104.67 156C1121.97 156 1136 170.029 1136 187.334L1136 312.666C1136 329.971 1121.97 344 1104.67 344L183.334 344C166.029 344 152 329.971 152 312.666Z" fill="#0088CC" fill-rule="evenodd"/><g clip-path="url(#clip1)"><g clip-path="url(#clip2)"><g clip-path="url(#clip3)"><path d="M236.667 118.333C236.667 183.687 183.687 236.667 118.333 236.667 52.9796 236.667-1.40135e-14 183.687-1.40135e-14 118.333-4.20404e-14 52.9796 52.9796-2.8027e-14 118.333-2.8027e-14 183.687-5.60539e-14 236.667 52.9796 236.667 118.333Z" fill="#0088CC" transform="matrix(1 0 0 1.00704 132.508 125.541)"/><path d="M96.6389 172.569C92.8049 172.569 93.4567 171.122 92.1343 167.471L80.8611 130.371 167.639 78.8889" fill="#C8DAEA" transform="matrix(1 0 0 1.00704 132.508 125.541)"/><path d="M96.6389 172.569C99.5972 172.569 100.904 171.217 102.556 169.611L118.333 154.269 98.6525 142.401" fill="#A9C9DD" transform="matrix(1 0 0 1.00704 132.508 125.541)"/><path d="M98.6506 142.404 146.339 177.637C151.781 180.64 155.708 179.085 157.064 172.585L176.475 81.1106C178.462 73.1428 173.438 69.5277 168.232 71.8914L54.247 115.843C46.4665 118.964 46.5129 123.305 52.8289 125.239L82.0799 134.369 149.799 91.6462C152.996 89.7075 155.931 90.7488 153.523 92.8867" fill="url(#fill4)" transform="matrix(1 0 0 1.00704 132.508 125.541)"/></g></g></g><text fill="#FFFFFF" font-family="Open Sans,Open Sans_MSFontService,sans-serif" font-weight="400" font-size="72" transform="translate(345.024 275)">@SqueakSmalltalkBot</text></g></svg>